<svg width="137" height="50" viewBox="0 0 137 50" fill="none" xmlns="http://www.w3.org/2000/svg">
<path d="M4.39609 0C5.71778 0 6.79047 0.440566 7.61413 1.3217C8.4378 2.22199 8.84964 3.34256 8.84964 4.68341C8.84964 6.04342 8.4378 7.16399 7.61413 8.04512C6.79047 8.94541 5.71778 9.39556 4.39609 9.39556C3.09354 9.39556 2.03044 8.95499 1.20677 8.07386C0.402256 7.19272 0 6.06258 0 4.68341C0 3.3234 0.402256 2.20283 1.20677 1.3217C2.03044 0.440566 3.09354 0 4.39609 0ZM27.9281 0C29.2498 0 30.3225 0.440566 31.1461 1.3217C31.9698 2.22199 32.3816 3.34256 32.3816 4.68341C32.3816 6.04342 31.9698 7.16399 31.1461 8.04512C30.3225 8.94541 29.2498 9.39556 27.9281 9.39556C26.6255 9.39556 25.5624 8.95499 24.7388 8.07386C23.9342 7.19272 23.532 6.06258 23.532 4.68341C23.532 3.3234 23.9342 2.20283 24.7388 1.3217C25.5624 0.440566 26.6255 0 27.9281 0Z" fill="#FE9201"/>
<path d="M15.0559 25.3709H0.316058V16.7511H42.1507V33.0712C42.1507 36.2126 41.576 38.971 40.4267 41.3462C39.2774 43.7406 37.6397 45.5795 35.5135 46.8628C33.4064 48.1462 31.0025 48.7879 28.3016 48.7879C24.2024 48.7879 20.9652 47.38 18.59 44.5642C16.2339 41.7676 15.0559 37.8887 15.0559 32.9275V25.3709ZM22.0379 25.3709V33.0712C22.0379 35.3507 22.5742 37.0842 23.6469 38.2718C24.7196 39.4786 26.252 40.082 28.2441 40.082C30.2937 40.082 31.9506 39.4786 33.2149 38.2718C34.4791 37.065 35.1304 35.3985 35.1687 33.2723V25.3709H22.0379Z" fill="#FE9201"/>
<path d="M57.0361 15.2615L57.242 18.0287C58.9953 15.8789 61.3661 14.8041 64.3543 14.8041C67.5408 14.8041 69.7286 16.0619 70.9178 18.5775C72.6559 16.0619 75.1334 14.8041 78.3504 14.8041C81.0337 14.8041 83.0309 15.5893 84.3421 17.1596C85.6533 18.7147 86.3089 21.0627 86.3089 24.2034V40.0061H79.6768V24.2263C79.6768 22.8236 79.4023 21.8021 78.8535 21.1618C78.3046 20.5062 77.3365 20.1784 75.9491 20.1784C73.9671 20.1784 72.5949 21.1236 71.8326 23.0142L71.8555 40.0061H65.2462V24.2491C65.2462 22.816 64.9642 21.7792 64.4001 21.1389C63.836 20.4986 62.8754 20.1784 61.5185 20.1784C59.6432 20.1784 58.2863 20.9559 57.4478 22.5111V40.0061H50.8385V15.2615H57.0361Z" fill="#FE9201"/>
<path d="M90.3796 27.4051C90.3796 24.9505 90.8523 22.7626 91.7975 20.8416C92.7428 18.9206 94.0997 17.4341 95.8683 16.3821C97.6521 15.3301 99.7179 14.8041 102.066 14.8041C105.405 14.8041 108.126 15.8256 110.23 17.8686C112.349 19.9116 113.531 22.6864 113.775 26.193L113.821 27.8854C113.821 31.6817 112.761 34.7309 110.642 37.0331C108.523 39.32 105.679 40.4635 102.112 40.4635C98.544 40.4635 95.6929 39.32 93.5585 37.0331C91.4392 34.7462 90.3796 31.6359 90.3796 27.7024V27.4051ZM96.9889 27.8854C96.9889 30.2333 97.431 32.0323 98.3153 33.2825C99.1996 34.5175 100.465 35.1349 102.112 35.1349C103.712 35.1349 104.963 34.5251 105.862 33.3054C106.762 32.0704 107.211 30.1037 107.211 27.4051C107.211 25.1029 106.762 23.3191 105.862 22.0537C104.963 20.7882 103.697 20.1555 102.066 20.1555C100.45 20.1555 99.1996 20.7882 98.3153 22.0537C97.431 23.3039 96.9889 25.2478 96.9889 27.8854Z" fill="#FE9201"/>
<path d="M136.53 40.0061H129.898V15.2615H136.53V40.0061ZM129.509 8.85806C129.509 7.86705 129.837 7.05138 130.492 6.41104C131.163 5.7707 132.07 5.45053 133.214 5.45053C134.342 5.45053 135.242 5.7707 135.912 6.41104C136.583 7.05138 136.919 7.86705 136.919 8.85806C136.919 9.86431 136.576 10.6876 135.89 11.3279C135.219 11.9683 134.327 12.2885 133.214 12.2885C132.101 12.2885 131.201 11.9683 130.515 11.3279C129.844 10.6876 129.509 9.86431 129.509 8.85806Z" fill="#FE9201"/>
<path d="M116.824 15.2615V41.3554C116.824 44.0845 117.548 46.2037 118.997 47.7131C120.445 49.2377 122.534 50 125.263 50C126.406 50 127.497 49.8704 128.533 49.6112V44.3741C127.741 44.5114 127.047 44.58 126.452 44.58C124.455 44.58 123.456 43.5204 123.456 41.4011V15.2615H116.824ZM123.982 8.85806C123.982 7.86705 123.655 7.05138 122.999 6.41104C122.328 5.7707 121.421 5.45053 120.277 5.45053C119.134 5.45053 118.234 5.7707 117.579 6.41104C116.908 7.05138 116.573 7.86705 116.573 8.85806C116.573 9.86431 116.916 10.6876 117.602 11.3279C118.273 11.9683 119.165 12.2885 120.277 12.2885C121.39 12.2885 122.29 11.9683 122.976 11.3279C123.647 10.6876 123.982 9.86431 123.982 8.85806Z" fill="#FE9201"/>
</svg>
